<svg xmlns="http://www.w3.org/2000/svg" xmlns:xlink="http://www.w3.org/1999/xlink" width="510" zoomAndPan="magnify" viewBox="0 0 382.5 599.999999" height="800" preserveAspectRatio="xMidYMid meet" version="1.0"><defs><clipPath id="d828a8b748"><path d="M 0 0.390625 L 381.25 0.390625 L 381.25 599.605469 L 0 599.605469 Z M 0 0.390625 " clip-rule="nonzero"/></clipPath><clipPath id="a0eea10a7e"><path d="M 129.648438 110.375 L 162.605469 110.375 L 162.605469 143.335938 L 129.648438 143.335938 Z M 129.648438 110.375 " clip-rule="nonzero"/></clipPath><clipPath id="05f2927979"><path d="M 146.128906 110.375 C 137.023438 110.375 129.648438 117.753906 129.648438 126.855469 C 129.648438 135.957031 137.023438 143.335938 146.128906 143.335938 C 155.230469 143.335938 162.605469 135.957031 162.605469 126.855469 C 162.605469 117.753906 155.230469 110.375 146.128906 110.375 Z M 146.128906 110.375 " clip-rule="nonzero"/></clipPath><clipPath id="8ddf750569"><path d="M 0.648438 0.375 L 33.605469 0.375 L 33.605469 33.335938 L 0.648438 33.335938 Z M 0.648438 0.375 " clip-rule="nonzero"/></clipPath><clipPath id="903685aeba"><path d="M 17.128906 0.375 C 8.023438 0.375 0.648438 7.753906 0.648438 16.855469 C 0.648438 25.957031 8.023438 33.335938 17.128906 33.335938 C 26.230469 33.335938 33.605469 25.957031 33.605469 16.855469 C 33.605469 7.753906 26.230469 0.375 17.128906 0.375 Z M 17.128906 0.375 " clip-rule="nonzero"/></clipPath><clipPath id="ec4a7bd8f8"><rect x="0" width="34" y="0" height="34"/></clipPath><clipPath id="f65f03d925"><path d="M 128.007812 404.53125 L 160.96875 404.53125 L 160.96875 437.492188 L 128.007812 437.492188 Z M 128.007812 404.53125 " clip-rule="nonzero"/></clipPath><clipPath id="3660b96cc7"><path d="M 144.488281 404.53125 C 135.386719 404.53125 128.007812 411.910156 128.007812 421.011719 C 128.007812 430.113281 135.386719 437.492188 144.488281 437.492188 C 153.589844 437.492188 160.96875 430.113281 160.96875 421.011719 C 160.96875 411.910156 153.589844 404.53125 144.488281 404.53125 Z M 144.488281 404.53125 " clip-rule="nonzero"/></clipPath><clipPath id="39b088cc68"><path d="M 0.0078125 0.53125 L 32.96875 0.53125 L 32.96875 33.492188 L 0.0078125 33.492188 Z M 0.0078125 0.53125 " clip-rule="nonzero"/></clipPath><clipPath id="87594f77c4"><path d="M 16.488281 0.53125 C 7.386719 0.53125 0.0078125 7.910156 0.0078125 17.011719 C 0.0078125 26.113281 7.386719 33.492188 16.488281 33.492188 C 25.589844 33.492188 32.96875 26.113281 32.96875 17.011719 C 32.96875 7.910156 25.589844 0.53125 16.488281 0.53125 Z M 16.488281 0.53125 " clip-rule="nonzero"/></clipPath><clipPath id="2bea1cc85d"><rect x="0" width="33" y="0" height="34"/></clipPath><clipPath id="1c8a1b1675"><path d="M 221.992188 110.375 L 254.953125 110.375 L 254.953125 143.335938 L 221.992188 143.335938 Z M 221.992188 110.375 " clip-rule="nonzero"/></clipPath><clipPath id="4f9ab07d9b"><path d="M 238.472656 110.375 C 229.371094 110.375 221.992188 117.753906 221.992188 126.855469 C 221.992188 135.957031 229.371094 143.335938 238.472656 143.335938 C 247.574219 143.335938 254.953125 135.957031 254.953125 126.855469 C 254.953125 117.753906 247.574219 110.375 238.472656 110.375 Z M 238.472656 110.375 " clip-rule="nonzero"/></clipPath><clipPath id="dce9463e66"><path d="M 0.992188 0.375 L 33.953125 0.375 L 33.953125 33.335938 L 0.992188 33.335938 Z M 0.992188 0.375 " clip-rule="nonzero"/></clipPath><clipPath id="2e257fe957"><path d="M 17.472656 0.375 C 8.371094 0.375 0.992188 7.753906 0.992188 16.855469 C 0.992188 25.957031 8.371094 33.335938 17.472656 33.335938 C 26.574219 33.335938 33.953125 25.957031 33.953125 16.855469 C 33.953125 7.753906 26.574219 0.375 17.472656 0.375 Z M 17.472656 0.375 " clip-rule="nonzero"/></clipPath><clipPath id="e5dd15ccd5"><rect x="0" width="34" y="0" height="34"/></clipPath><clipPath id="233540ca47"><path d="M 220.351562 404.53125 L 253.3125 404.53125 L 253.3125 437.492188 L 220.351562 437.492188 Z M 220.351562 404.53125 " clip-rule="nonzero"/></clipPath><clipPath id="bf87f08e23"><path d="M 236.832031 404.53125 C 227.730469 404.53125 220.351562 411.910156 220.351562 421.011719 C 220.351562 430.113281 227.730469 437.492188 236.832031 437.492188 C 245.933594 437.492188 253.3125 430.113281 253.3125 421.011719 C 253.3125 411.910156 245.933594 404.53125 236.832031 404.53125 Z M 236.832031 404.53125 " clip-rule="nonzero"/></clipPath><clipPath id="e5e9bd1852"><path d="M 0.351562 0.53125 L 33.3125 0.53125 L 33.3125 33.492188 L 0.351562 33.492188 Z M 0.351562 0.53125 " clip-rule="nonzero"/></clipPath><clipPath id="3bd68793d5"><path d="M 16.832031 0.53125 C 7.730469 0.53125 0.351562 7.910156 0.351562 17.011719 C 0.351562 26.113281 7.730469 33.492188 16.832031 33.492188 C 25.933594 33.492188 33.3125 26.113281 33.3125 17.011719 C 33.3125 7.910156 25.933594 0.53125 16.832031 0.53125 Z M 16.832031 0.53125 " clip-rule="nonzero"/></clipPath><clipPath id="97fa8bad8e"><rect x="0" width="34" y="0" height="34"/></clipPath><clipPath id="d3d7d8c9f0"><path d="M 104 173 L 277 173 L 277 256.644531 L 104 256.644531 Z M 104 173 " clip-rule="nonzero"/></clipPath><clipPath id="a232f81332"><path d="M 104 292 L 277 292 L 277 375.40625 L 104 375.40625 Z M 104 292 " clip-rule="nonzero"/></clipPath></defs><g clip-path="url(#d828a8b748)"><path fill="#272727" d="M 299.601562 0.398438 L 81.710938 0.398438 C 36.632812 0.398438 0 37.03125 0 82.109375 L 0 517.890625 C 0 562.96875 36.632812 599.601562 81.710938 599.601562 L 299.601562 599.601562 C 344.675781 599.601562 381.308594 562.96875 381.308594 517.890625 L 381.308594 82.109375 C 381.308594 37.03125 344.675781 0.398438 299.601562 0.398438 Z M 245.128906 545.128906 L 136.183594 545.128906 L 136.183594 517.890625 L 245.128906 517.890625 Z M 333.644531 463.417969 L 47.664062 463.417969 L 47.664062 82.109375 L 333.644531 82.109375 Z M 333.644531 463.417969 " fill-opacity="1" fill-rule="nonzero"/></g><g clip-path="url(#a0eea10a7e)"><g clip-path="url(#05f2927979)"><g transform="matrix(1, 0, 0, 1, 129, 110)"><g clip-path="url(#ec4a7bd8f8)"><g clip-path="url(#8ddf750569)"><g clip-path="url(#903685aeba)"><path fill="#ff5757" d="M 0.648438 0.375 L 33.605469 0.375 L 33.605469 33.335938 L 0.648438 33.335938 Z M 0.648438 0.375 " fill-opacity="1" fill-rule="nonzero"/></g></g></g></g></g></g><g clip-path="url(#f65f03d925)"><g clip-path="url(#3660b96cc7)"><g transform="matrix(1, 0, 0, 1, 128, 404)"><g clip-path="url(#2bea1cc85d)"><g clip-path="url(#39b088cc68)"><g clip-path="url(#87594f77c4)"><path fill="#5170ff" d="M 0.0078125 0.53125 L 32.96875 0.53125 L 32.96875 33.492188 L 0.0078125 33.492188 Z M 0.0078125 0.53125 " fill-opacity="1" fill-rule="nonzero"/></g></g></g></g></g></g><g clip-path="url(#1c8a1b1675)"><g clip-path="url(#4f9ab07d9b)"><g transform="matrix(1, 0, 0, 1, 221, 110)"><g clip-path="url(#e5dd15ccd5)"><g clip-path="url(#dce9463e66)"><g clip-path="url(#2e257fe957)"><path fill="#ff5757" d="M 0.992188 0.375 L 33.953125 0.375 L 33.953125 33.335938 L 0.992188 33.335938 Z M 0.992188 0.375 " fill-opacity="1" fill-rule="nonzero"/></g></g></g></g></g></g><g clip-path="url(#233540ca47)"><g clip-path="url(#bf87f08e23)"><g transform="matrix(1, 0, 0, 1, 220, 404)"><g clip-path="url(#97fa8bad8e)"><g clip-path="url(#e5e9bd1852)"><g clip-path="url(#3bd68793d5)"><path fill="#5170ff" d="M 0.351562 0.53125 L 33.3125 0.53125 L 33.3125 33.492188 L 0.351562 33.492188 Z M 0.351562 0.53125 " fill-opacity="1" fill-rule="nonzero"/></g></g></g></g></g></g><g clip-path="url(#d3d7d8c9f0)"><path fill="#ff5757" d="M 190.589844 256.535156 C 188.050781 256.535156 185.519531 256.421875 182.988281 256.203125 C 180.460938 255.980469 177.949219 255.648438 175.449219 255.210938 C 172.949219 254.769531 170.476562 254.222656 168.023438 253.566406 C 165.574219 252.910156 163.152344 252.148438 160.769531 251.285156 C 158.382812 250.417969 156.039062 249.449219 153.738281 248.382812 C 151.4375 247.3125 149.1875 246.144531 146.988281 244.878906 C 144.789062 243.613281 142.648438 242.253906 140.566406 240.804688 C 138.484375 239.351562 136.46875 237.8125 134.523438 236.1875 C 132.574219 234.558594 130.703125 232.851562 128.902344 231.0625 C 127.105469 229.273438 125.386719 227.410156 123.75 225.46875 C 122.113281 223.53125 120.5625 221.523438 119.101562 219.449219 C 117.636719 217.375 116.269531 215.242188 114.992188 213.050781 C 113.714844 210.855469 112.535156 208.613281 111.453125 206.316406 C 110.371094 204.023438 109.394531 201.683594 108.515625 199.304688 C 107.636719 196.921875 106.863281 194.507812 106.195312 192.058594 C 105.527344 189.613281 104.964844 187.140625 104.511719 184.644531 C 104.398438 184.027344 104.347656 183.410156 104.355469 182.785156 C 104.363281 182.160156 104.433594 181.539062 104.5625 180.929688 C 104.691406 180.316406 104.878906 179.726562 105.125 179.152344 C 105.375 178.578125 105.671875 178.03125 106.027344 177.515625 C 106.382812 177 106.78125 176.527344 107.230469 176.089844 C 107.679688 175.652344 108.164062 175.265625 108.6875 174.925781 C 109.210938 174.582031 109.765625 174.296875 110.34375 174.066406 C 110.925781 173.835938 111.523438 173.660156 112.136719 173.546875 C 112.753906 173.433594 113.371094 173.382812 113.996094 173.390625 C 114.621094 173.398438 115.238281 173.464844 115.851562 173.597656 C 116.464844 173.726562 117.054688 173.914062 117.628906 174.160156 C 118.203125 174.40625 118.75 174.707031 119.265625 175.0625 C 119.78125 175.414062 120.253906 175.816406 120.691406 176.265625 C 121.128906 176.710938 121.515625 177.199219 121.855469 177.722656 C 122.195312 178.246094 122.484375 178.800781 122.714844 179.378906 C 122.945312 179.960938 123.117188 180.558594 123.234375 181.171875 C 123.605469 183.121094 124.0625 185.046875 124.601562 186.957031 C 125.140625 188.863281 125.761719 190.746094 126.460938 192.601562 C 127.160156 194.457031 127.9375 196.277344 128.796875 198.066406 C 129.652344 199.855469 130.582031 201.605469 131.589844 203.3125 C 132.59375 205.023438 133.671875 206.683594 134.820312 208.300781 C 135.96875 209.917969 137.1875 211.480469 138.46875 212.992188 C 139.75 214.507812 141.097656 215.960938 142.503906 217.359375 C 143.910156 218.753906 145.375 220.089844 146.898438 221.359375 C 148.417969 222.632812 149.992188 223.835938 151.617188 224.972656 C 153.242188 226.109375 154.914062 227.171875 156.628906 228.167969 C 158.347656 229.160156 160.101562 230.078125 161.898438 230.921875 C 163.691406 231.765625 165.519531 232.527344 167.378906 233.214844 C 169.242188 233.902344 171.128906 234.507812 173.039062 235.03125 C 174.953125 235.554688 176.882812 235.996094 178.832031 236.355469 C 180.785156 236.714844 182.746094 236.988281 184.71875 237.179688 C 186.695312 237.371094 188.671875 237.476562 190.65625 237.5 C 190.929688 237.5 191.199219 237.5 191.472656 237.5 C 193.441406 237.464844 195.402344 237.347656 197.359375 237.144531 C 199.316406 236.945312 201.261719 236.660156 203.191406 236.289062 C 205.125 235.921875 207.039062 235.46875 208.933594 234.9375 C 210.824219 234.40625 212.695312 233.792969 214.535156 233.101562 C 216.375 232.40625 218.183594 231.636719 219.960938 230.789062 C 221.734375 229.941406 223.46875 229.019531 225.167969 228.023438 C 226.863281 227.023438 228.511719 225.957031 230.117188 224.820312 C 231.722656 223.679688 233.273438 222.476562 234.777344 221.203125 C 236.277344 219.933594 237.722656 218.601562 239.109375 217.203125 C 240.496094 215.808594 241.820312 214.355469 243.082031 212.847656 C 244.34375 211.339844 245.539062 209.78125 246.667969 208.167969 C 247.796875 206.558594 248.855469 204.898438 249.839844 203.199219 C 250.828125 201.496094 251.738281 199.753906 252.574219 197.972656 C 253.414062 196.195312 254.171875 194.382812 254.851562 192.535156 C 255.535156 190.691406 256.136719 188.820312 256.65625 186.921875 C 257.179688 185.027344 257.617188 183.109375 257.976562 181.175781 C 258.089844 180.558594 258.261719 179.960938 258.492188 179.382812 C 258.722656 178.800781 259.007812 178.246094 259.347656 177.722656 C 259.691406 177.199219 260.078125 176.710938 260.515625 176.265625 C 260.949219 175.816406 261.425781 175.414062 261.941406 175.0625 C 262.457031 174.707031 263 174.40625 263.574219 174.160156 C 264.148438 173.910156 264.742188 173.722656 265.355469 173.59375 C 265.964844 173.460938 266.585938 173.394531 267.210938 173.386719 C 267.835938 173.378906 268.453125 173.429688 269.070312 173.542969 C 269.683594 173.65625 270.28125 173.832031 270.863281 174.0625 C 271.445312 174.292969 271.996094 174.578125 272.519531 174.921875 C 273.042969 175.261719 273.53125 175.648438 273.980469 176.085938 C 274.425781 176.523438 274.828125 177 275.179688 177.511719 C 275.535156 178.027344 275.835938 178.574219 276.082031 179.148438 C 276.328125 179.722656 276.515625 180.316406 276.648438 180.929688 C 276.777344 181.539062 276.847656 182.15625 276.855469 182.78125 C 276.863281 183.410156 276.808594 184.027344 276.695312 184.644531 C 276.238281 187.113281 275.671875 189.558594 275.003906 191.984375 C 274.339844 194.40625 273.566406 196.792969 272.695312 199.152344 C 271.824219 201.507812 270.851562 203.820312 269.78125 206.09375 C 268.707031 208.367188 267.542969 210.589844 266.28125 212.765625 C 265.019531 214.9375 263.664062 217.050781 262.222656 219.109375 C 260.78125 221.167969 259.25 223.15625 257.636719 225.082031 C 256.023438 227.007812 254.328125 228.863281 252.554688 230.644531 C 250.785156 232.425781 248.9375 234.125 247.019531 235.75 C 245.101562 237.371094 243.117188 238.90625 241.066406 240.359375 C 239.015625 241.8125 236.90625 243.175781 234.738281 244.445312 C 232.570312 245.71875 230.351562 246.894531 228.085938 247.976562 C 225.816406 249.054688 223.503906 250.039062 221.152344 250.921875 C 218.800781 251.804688 216.414062 252.585938 213.996094 253.261719 C 211.574219 253.941406 209.132812 254.515625 206.664062 254.984375 C 204.195312 255.453125 201.710938 255.816406 199.210938 256.070312 C 196.710938 256.328125 194.203125 256.476562 191.691406 256.515625 Z M 190.589844 256.535156 " fill-opacity="1" fill-rule="nonzero"/></g><g clip-path="url(#a232f81332)"><path fill="#5170ff" d="M 190.589844 375.292969 C 188.050781 375.292969 185.519531 375.183594 182.988281 374.960938 C 180.460938 374.738281 177.949219 374.410156 175.449219 373.96875 C 172.949219 373.527344 170.476562 372.980469 168.023438 372.324219 C 165.574219 371.671875 163.152344 370.910156 160.769531 370.042969 C 158.382812 369.179688 156.039062 368.210938 153.738281 367.140625 C 151.4375 366.070312 149.1875 364.902344 146.988281 363.636719 C 144.789062 362.375 142.648438 361.015625 140.566406 359.5625 C 138.484375 358.113281 136.46875 356.574219 134.523438 354.945312 C 132.574219 353.320312 130.703125 351.613281 128.902344 349.820312 C 127.105469 348.03125 125.386719 346.167969 123.75 344.230469 C 122.113281 342.289062 120.5625 340.285156 119.101562 338.210938 C 117.636719 336.136719 116.269531 334.003906 114.992188 331.808594 C 113.714844 329.617188 112.535156 327.371094 111.453125 325.078125 C 110.371094 322.78125 109.394531 320.445312 108.515625 318.0625 C 107.636719 315.683594 106.863281 313.269531 106.195312 310.820312 C 105.527344 308.371094 104.964844 305.898438 104.511719 303.402344 C 104.398438 302.789062 104.347656 302.167969 104.355469 301.542969 C 104.363281 300.917969 104.433594 300.300781 104.5625 299.6875 C 104.691406 299.078125 104.878906 298.484375 105.125 297.910156 C 105.375 297.335938 105.671875 296.792969 106.027344 296.277344 C 106.382812 295.761719 106.78125 295.285156 107.230469 294.847656 C 107.679688 294.414062 108.164062 294.023438 108.6875 293.683594 C 109.210938 293.34375 109.765625 293.058594 110.34375 292.824219 C 110.925781 292.59375 111.523438 292.421875 112.136719 292.308594 C 112.753906 292.191406 113.371094 292.140625 113.996094 292.148438 C 114.621094 292.15625 115.238281 292.226562 115.851562 292.355469 C 116.464844 292.484375 117.054688 292.671875 117.628906 292.921875 C 118.203125 293.167969 118.75 293.46875 119.265625 293.820312 C 119.78125 294.175781 120.253906 294.578125 120.691406 295.023438 C 121.128906 295.472656 121.515625 295.957031 121.855469 296.480469 C 122.195312 297.007812 122.484375 297.558594 122.714844 298.140625 C 122.945312 298.71875 123.117188 299.316406 123.234375 299.929688 C 123.605469 301.878906 124.0625 303.808594 124.601562 305.714844 C 125.140625 307.625 125.761719 309.503906 126.460938 311.359375 C 127.160156 313.214844 127.9375 315.039062 128.796875 316.828125 C 129.652344 318.617188 130.582031 320.363281 131.589844 322.074219 C 132.59375 323.78125 133.671875 325.445312 134.820312 327.058594 C 135.96875 328.675781 137.1875 330.242188 138.46875 331.753906 C 139.75 333.265625 141.097656 334.71875 142.503906 336.117188 C 143.910156 337.515625 145.375 338.847656 146.898438 340.121094 C 148.417969 341.390625 149.992188 342.59375 151.617188 343.730469 C 153.242188 344.867188 154.914062 345.933594 156.628906 346.925781 C 158.347656 347.917969 160.101562 348.835938 161.898438 349.679688 C 163.691406 350.523438 165.519531 351.289062 167.378906 351.972656 C 169.242188 352.660156 171.128906 353.265625 173.039062 353.789062 C 174.953125 354.316406 176.882812 354.757812 178.832031 355.117188 C 180.785156 355.472656 182.746094 355.75 184.71875 355.941406 C 186.695312 356.128906 188.671875 356.238281 190.65625 356.257812 C 190.929688 356.257812 191.199219 356.257812 191.472656 356.257812 C 193.441406 356.222656 195.402344 356.105469 197.359375 355.90625 C 199.316406 355.703125 201.261719 355.417969 203.191406 355.050781 C 205.125 354.679688 207.039062 354.230469 208.933594 353.699219 C 210.824219 353.164062 212.695312 352.550781 214.535156 351.859375 C 216.375 351.167969 218.183594 350.394531 219.960938 349.546875 C 221.734375 348.699219 223.46875 347.777344 225.167969 346.78125 C 226.863281 345.785156 228.511719 344.71875 230.117188 343.578125 C 231.722656 342.441406 233.273438 341.234375 234.777344 339.964844 C 236.277344 338.691406 237.722656 337.359375 239.109375 335.964844 C 240.496094 334.570312 241.820312 333.117188 243.082031 331.609375 C 244.34375 330.097656 245.539062 328.539062 246.667969 326.925781 C 247.796875 325.316406 248.855469 323.660156 249.839844 321.957031 C 250.828125 320.253906 251.738281 318.515625 252.574219 316.734375 C 253.414062 314.953125 254.171875 313.140625 254.851562 311.296875 C 255.535156 309.449219 256.136719 307.578125 256.65625 305.683594 C 257.179688 303.785156 257.617188 301.871094 257.976562 299.933594 C 258.089844 299.320312 258.261719 298.722656 258.492188 298.140625 C 258.722656 297.558594 259.007812 297.007812 259.347656 296.484375 C 259.691406 295.957031 260.078125 295.472656 260.515625 295.023438 C 260.949219 294.574219 261.425781 294.175781 261.941406 293.820312 C 262.457031 293.464844 263 293.164062 263.574219 292.917969 C 264.148438 292.671875 264.742188 292.484375 265.355469 292.351562 C 265.964844 292.222656 266.585938 292.152344 267.210938 292.144531 C 267.835938 292.136719 268.453125 292.1875 269.070312 292.304688 C 269.683594 292.417969 270.28125 292.589844 270.863281 292.820312 C 271.445312 293.054688 271.996094 293.339844 272.519531 293.679688 C 273.042969 294.019531 273.53125 294.410156 273.980469 294.84375 C 274.425781 295.28125 274.828125 295.757812 275.179688 296.273438 C 275.535156 296.789062 275.835938 297.332031 276.082031 297.90625 C 276.328125 298.484375 276.515625 299.074219 276.648438 299.6875 C 276.777344 300.300781 276.847656 300.917969 276.855469 301.542969 C 276.863281 302.167969 276.808594 302.789062 276.695312 303.402344 C 276.238281 305.875 275.671875 308.320312 275.003906 310.742188 C 274.339844 313.164062 273.566406 315.554688 272.695312 317.910156 C 271.824219 320.265625 270.851562 322.582031 269.78125 324.855469 C 268.707031 327.128906 267.542969 329.351562 266.28125 331.523438 C 265.019531 333.695312 263.664062 335.8125 262.222656 337.867188 C 260.78125 339.925781 259.25 341.917969 257.636719 343.84375 C 256.023438 345.769531 254.328125 347.621094 252.554688 349.402344 C 250.785156 351.183594 248.9375 352.886719 247.019531 354.507812 C 245.101562 356.128906 243.117188 357.667969 241.066406 359.121094 C 239.015625 360.570312 236.90625 361.933594 234.738281 363.207031 C 232.570312 364.476562 230.351562 365.652344 228.085938 366.734375 C 225.816406 367.816406 223.503906 368.796875 221.152344 369.679688 C 218.800781 370.5625 216.414062 371.34375 213.996094 372.023438 C 211.574219 372.699219 209.132812 373.273438 206.664062 373.742188 C 204.195312 374.210938 201.710938 374.574219 199.210938 374.832031 C 196.710938 375.085938 194.203125 375.234375 191.691406 375.277344 Z M 190.589844 375.292969 " fill-opacity="1" fill-rule="nonzero"/></g></svg>